<svg width="70" height="85" viewBox="0 0 70 85" fill="none" xmlns="http://www.w3.org/2000/svg">
<path d="M64.2677 43.72L69.9458 46.7591L69.9532 66.7964L48.0557 79.0853C48.0825 79.0049 48.1044 78.929 48.1666 78.8668C48.3847 78.6493 48.7101 78.4888 48.9512 78.2844C49.4546 77.8578 49.9271 77.3569 50.3823 76.8794C51.2456 75.974 51.9549 74.9167 52.6346 73.8717C54.5065 70.9938 55.493 67.7064 56.4463 64.4437L61.0822 61.8579L61.0566 52.5511L61.6158 52.3664L61.5918 44.3168L61.6373 44.0302C61.8502 43.9673 62.5836 44.4325 62.8282 44.5644L62.8787 44.5917C63.2829 44.2326 63.822 44.0344 64.2677 43.72Z" fill="#4F518C"/>
<path d="M61.5918 44.3168L61.6372 44.0302C61.8502 43.9673 62.5836 44.4325 62.8281 44.5644L62.8786 44.5918L69.2512 47.932C68.5552 48.4448 67.7934 48.8395 67.0443 49.2674L63.2852 51.3984L62.3192 51.9731C62.1007 52.1131 61.8718 52.309 61.6157 52.3664L61.5918 44.3168Z" fill="#80A1E2"/>
<path d="M4.19321 59.3645C3.64853 58.2924 3.10522 57.2265 2.66045 56.1081C-0.40356 48.4017 -0.901706 39.5949 1.58752 31.6614C4.16255 23.4541 9.60658 16.5365 16.7974 11.8114C17.5193 11.3371 18.3081 10.9529 19.0577 10.5214L24.945 7.18823L31.3701 3.54795L37.6697 0L37.6431 9.85638L30.4863 13.8736L25.4736 16.7295C23.9782 17.5749 22.3624 18.3181 20.9683 19.319C15.6212 23.1575 11.8792 29.0546 10.3716 35.4134C10.0188 36.9014 9.711 38.5035 9.71839 40.0382L9.67255 40.28C8.91958 41.2076 8.29019 42.2154 7.68899 43.2452C6.24519 45.7177 5.19634 48.2651 4.63743 51.08C4.35538 52.5004 4.24412 53.9538 4.17008 55.3979L4.15818 57.8553C4.17309 58.3511 4.22852 58.8706 4.19321 59.3645Z" fill="#4F518C"/>
<path d="M9.67258 40.28C9.65123 42.0124 9.59744 43.763 9.73977 45.491C10.2535 51.7248 12.7248 57.8505 17.1489 62.3612C18.7353 63.9784 20.4804 65.3552 22.3971 66.5677L27.0007 69.2071L33.2835 72.834L37.6436 75.2752L56.4462 64.4438C55.4929 67.7066 54.5064 70.994 52.6346 73.8719C51.9548 74.9169 51.2455 75.9741 50.3822 76.8795C49.9271 77.357 49.4545 77.8579 48.9512 78.2845C48.71 78.4889 48.3846 78.6495 48.1666 78.867C48.1043 78.9291 48.0824 79.0051 48.0556 79.0854L48.046 79.0932L45.0638 80.8051L38.808 84.321L38.0673 84.756C37.9813 84.8108 37.7856 84.972 37.6977 84.9969C37.664 85.0064 37.6272 84.9927 37.5935 84.983C37.4681 84.9469 37.2896 84.7963 37.1759 84.7257L36.1276 84.1119L29.8385 80.5716L23.0678 76.7295C20.4247 75.2609 17.7482 73.8493 15.2581 72.1281C10.6712 68.9576 6.59228 64.4058 4.19324 59.3645C4.22855 58.8707 4.17312 58.3511 4.1582 57.8554L4.17011 55.3979C4.24415 53.9539 4.35541 52.5004 4.63746 51.0801C5.19637 48.2651 6.24522 45.7178 7.68902 43.2452C8.29022 42.2155 8.91961 41.2076 9.67258 40.28Z" fill="#2C2A4A"/>
<path d="M37.6696 0L69.9621 17.717L69.9999 37.7405L61.6711 42.3344L64.2675 43.7201C63.8218 44.0345 63.2827 44.2327 62.8784 44.5918L62.8279 44.5645C62.5834 44.4326 61.85 43.9674 61.637 44.0303L61.5916 44.3169L61.6155 52.3665L61.0564 52.5512L61.0819 61.858L56.446 64.4438L37.6435 75.2751L33.2833 72.8339L27.0005 69.2071L22.3969 66.5677C20.4803 65.3552 18.7351 63.9784 17.1487 62.3611C12.7247 57.8504 10.2534 51.7248 9.73961 45.491C9.59728 43.763 9.65107 42.0123 9.67242 40.28L9.71826 40.0382C9.71087 38.5035 10.0187 36.9015 10.3715 35.4134C11.879 29.0546 15.621 23.1575 20.9682 19.319C22.3623 18.3181 23.9781 17.5749 25.4735 16.7295L30.4862 13.8736L37.6429 9.85638L37.6696 0Z" fill="#2C2A4A"/>
<path d="M29.2345 34.202C28.8173 33.8185 28.1475 33.5362 27.6513 33.2518L22.2222 30.2906C22.6894 29.9506 23.245 29.6836 23.7481 29.3958L27.323 27.4357L33.8217 23.8156L37.6941 21.6045L51.6749 29.366L44.4072 33.2993L44.3674 33.2863C42.9329 32.3043 41.2846 31.5563 39.7662 30.7035C39.4924 30.5496 37.9087 29.5449 37.7624 29.5851C37.3171 29.7075 36.6869 30.1781 36.265 30.4047L31.7747 32.8882C30.9408 33.3459 30.1119 33.832 29.2345 34.202Z" fill="#80A1E2"/>
<path d="M29.2346 34.2018C30.112 33.8318 30.9409 33.3457 31.7748 32.888L36.2651 30.4045C36.687 30.1779 37.3172 29.7073 37.7625 29.5849C37.9088 29.5447 39.4925 30.5494 39.7663 30.7033C41.2847 31.5562 42.933 32.3041 44.3675 33.2861L35.6204 38.0806L44.159 42.7731C43.272 43.3477 42.32 43.8257 41.3895 44.3268L37.4311 46.4786L36.3518 47.0621C36.1533 47.1654 35.8975 47.2591 35.7339 47.4113L44.2683 51.9797L37.5827 55.7362L29.1763 50.9064L29.1962 39.3555L29.1888 35.9191C29.1878 35.3828 29.1139 34.7202 29.2346 34.2018Z" fill="#907AD6"/>
<path d="M37.6431 9.85645L44.4533 13.6385L53.1908 18.4725L57.5162 20.8925C58.714 21.572 59.922 22.3289 61.1981 22.8514L61.1987 29.3144L61.1923 30.9925C61.1898 31.2253 61.2247 31.541 61.1658 31.7638L52.7996 36.2859L52.8338 28.2172L37.6881 19.8421L21.3847 28.9898C20.1384 29.675 18.8962 30.3674 17.7303 31.1842C15.4326 32.794 13.4284 34.7836 11.7519 37.0254C11.0264 37.9955 10.4588 39.0899 9.71839 40.0383C9.711 38.5035 10.0188 36.9015 10.3716 35.4135C11.8792 29.0547 15.6212 23.1575 20.9683 19.3191C22.3624 18.3182 23.9782 17.575 25.4736 16.7295L30.4863 13.8737L37.6431 9.85645Z" fill="#907AD6"/>
<path d="M37.6698 0L69.9622 17.717L70 37.7405L61.6713 42.3344C61.2251 42.4672 60.8155 42.7385 60.4127 42.9669L58.4147 44.0939L48.193 49.7911L45.6872 51.2162C45.2371 51.4729 44.75 51.7993 44.2681 51.9799L35.7338 47.4114C35.8974 47.2593 36.1531 47.1656 36.3517 47.0622L37.4309 46.4788L41.3894 44.3269C42.3199 43.8259 43.2718 43.3478 44.1589 42.7732L35.6202 38.0807L44.3674 33.2862L44.4072 33.2993C44.9031 33.6899 45.5368 33.9997 46.0813 34.3237C48.2339 35.6045 50.5447 36.676 52.6412 38.0396L61.163 33.2572C61.2437 32.8018 61.173 32.2314 61.1659 31.7637C61.2247 31.5409 61.1898 31.2252 61.1923 30.9925L61.1987 29.3143L61.1981 22.8513C59.922 22.3289 58.714 21.5719 57.5162 20.8925L53.1908 18.4724L44.4533 13.6384L37.6431 9.85638L37.6698 0Z" fill="#DABFFF"/>
<path d="M9.71826 40.0382C10.4586 39.0898 11.0263 37.9955 11.7518 37.0254C13.4282 34.7835 15.4324 32.7939 17.7302 31.1841C18.8961 30.3673 20.1383 29.6749 21.3846 28.9897L21.3757 47.9683L21.3732 53.3107C21.3731 54.0976 21.282 55.0231 21.4002 55.7939L33.1873 62.6192L36.307 64.4036C36.713 64.6355 37.2295 65.0219 37.6752 65.1412L52.8203 56.5637L52.7889 49.0172L59.8642 45.0709C60.1301 44.9297 60.7926 44.4568 61.0632 44.4562L61.0564 52.5512L61.0819 61.858L56.446 64.4437L37.6435 75.2751L33.2833 72.8339L27.0005 69.2071L22.3969 66.5677C20.4803 65.3551 18.7351 63.9784 17.1487 62.3611C12.7247 57.8504 10.2534 51.7247 9.73961 45.4909C9.59728 43.7629 9.65107 42.0123 9.67242 40.28L9.71826 40.0382Z" fill="#DABFFF"/>
</svg>
