<?xml version="1.0" encoding="iso-8859-1"?>
<!-- Uploaded to: SVG Repo, www.svgrepo.com, Generator: SVG Repo Mixer Tools -->
<svg fill="#000000" height="800px" width="800px" version="1.1" id="Capa_1" xmlns="http://www.w3.org/2000/svg" xmlns:xlink="http://www.w3.org/1999/xlink" 
	 viewBox="0 0 490 490" xml:space="preserve">
<g>
	<path d="M469.762,154c-12.5-12.5-42.4-29.8-78-12.6V67.6c0-11.4-9.4-20.8-20.8-20.8h-72.8v-26c0-11.4-9.4-20.8-20.8-20.8h-161.3
		c-11.4,0-20.8,9.4-20.8,20.8v26h-73.8c-11.4,0-20.8,9.4-20.8,20.8v401.6c0,11.4,9.4,20.8,20.8,20.8h349.5
		c11.4,0,20.8-8.3,20.8-19.8V328.3l78-78.6C495.862,223.7,495.862,180,469.762,154z M135.863,41.6h120.7v52h-120.7V41.6z
		 M350.163,449.4h-307.9v-361h53.1v25c0,11.4,9.4,20.8,20.8,20.8h161.3c10.4,0,19.8-9.4,20.8-20.8v-25h52c0,0,0.1,88.3,0.2,89.2
		l-110.6,110.6c-8.3,8.3-14.6,17.7-17.7,29.1l-27,86.3c-5.6,23.4,17.8,29.1,26,25l86.3-27c10.4-3.1,20.8-9.4,29.1-17.7l13.5-13.6
		v79.1H350.163z M441.762,220.6l-134.2,134.2c-3.1,4.2-7.3,7.3-12.5,8.3l-48.9,15.6l14.6-48.9c2.1-5.2,5.2-10.4,8.3-13.5
		l135.2-134.2c16.1-15.7,33.3-5.2,37.5,0C452.163,192.5,452.163,210.1,441.762,220.6z"/>
</g>
</svg>