<?xml version="1.0" standalone="no"?>
<!DOCTYPE svg PUBLIC "-//W3C//DTD SVG 20010904//EN"
 "http://www.w3.org/TR/2001/REC-SVG-20010904/DTD/svg10.dtd">
<svg version="1.0" xmlns="http://www.w3.org/2000/svg"
 width="50.000000pt" height="50.000000pt" viewBox="0 0 50.000000 50.000000"
 preserveAspectRatio="xMidYMid meet">

<g transform="translate(0.000000,50.000000) scale(0.100000,-0.100000)"
fill="#000000" stroke="none">
<path d="M170 467 c-49 -16 -123 -93 -138 -143 -27 -91 -8 -169 58 -234 93
-94 227 -94 320 0 94 93 94 227 0 320 -65 65 -150 85 -240 57z m145 -18 c23
-7 57 -28 81 -53 85 -84 85 -208 0 -292 -84 -85 -208 -85 -292 0 -82 82 -85
203 -6 288 57 60 132 80 217 57z"/>
<path d="M235 372 c-29 -6 -45 -22 -45 -43 0 -25 18 -24 38 2 11 13 23 18 34
14 28 -11 30 -36 4 -74 -13 -20 -26 -45 -28 -55 -5 -33 20 -29 37 6 8 18 23
45 33 61 15 24 16 30 2 53 -16 30 -44 43 -75 36z"/>
<path d="M237 164 c-14 -15 -6 -34 14 -34 14 0 19 5 17 17 -3 18 -20 27 -31
17z"/>
</g>
</svg>
