<?xml version="1.0" encoding="iso-8859-1"?>
<!-- Uploaded to: SVG Repo, www.svgrepo.com, Generator: SVG Repo Mixer Tools -->
<svg fill="#000000" height="800px" width="800px" version="1.1" id="Layer_1" xmlns="http://www.w3.org/2000/svg" xmlns:xlink="http://www.w3.org/1999/xlink" 
	 viewBox="0 0 512.005 512.005" xml:space="preserve">
<g>
	<g>
		<path d="M371.33,26.816l-42.667-25.6c-2.842-1.698-6.383-1.613-9.131,0.222l-49.05,32.7h-28.962l-49.05-32.7
			c-2.765-1.835-6.306-1.92-9.131-0.222l-42.667,25.6c-2.859,1.715-4.454,4.932-4.087,8.252c0.367,3.311,2.62,6.11,5.786,7.159
			l78.967,26.325l22.878,32.026l-27.469,20.599c-2.091,1.562-3.336,3.994-3.413,6.596l-8.533,324.267
			c-0.051,2.082,0.649,4.096,1.971,5.692l42.667,51.2c1.63,1.946,4.028,3.072,6.562,3.072c2.534,0,4.932-1.126,6.562-3.072
			l42.667-51.2c1.323-1.596,2.022-3.61,1.971-5.692l-8.533-324.267c-0.077-2.603-1.323-5.035-3.413-6.596l-27.469-20.599
			l22.878-32.026l78.967-26.325c3.166-1.05,5.419-3.849,5.786-7.159C375.785,31.749,374.189,28.532,371.33,26.816z M256.002,87.719
			l-26.086-36.514h9.02h34.133h9.02L256.002,87.719z"/>
	</g>
</g>
</svg>